<svg fill="none" xmlns="http://www.w3.org/2000/svg">
  <symbol viewBox="0 0 12 12" id="essentialPlus">
    <path d="M12 5H7V0H5V5H0V7H5V12H7V7H12V5Z" fill="#dddddd"/>
  </symbol>
  <symbol viewBox="0 0 18 18" id="search">
    <path d="M18 16.6L14.5 13.1C15.6 11.7 16.2 10 16.2 8.1C16.2 3.6 12.6 0 8.1 0C3.6 0 0 3.6 0 8.1C0 12.6 3.6 16.2 8.1 16.2C10 16.2 11.7 15.6 13.1 14.5L16.6 18L18 16.6ZM8.1 14.2C4.8 14.2 2 11.5 2 8.1C2 4.7 4.8 2 8.1 2C11.4 2 14.2 4.7 14.2 8.1C14.2 11.5 11.5 14.2 8.1 14.2Z" />
  </symbol>
  <symbol viewBox="0 0 20 14" id="mail">
    <path d="M17 0H3C1.3 0 0 1.3 0 3V11C0 12.7 1.3 14 3 14H17C18.7 14 20 12.7 20 11V3C20 1.3 18.7 0 17 0ZM16.2 2L12.3 5.4C11 6.5 8.9 6.5 7.6 5.4L3.8 2H16.2ZM17 12H3C2.4 12 2 11.6 2 11V3.1L6.3 7C7.3 7.9 8.6 8.3 10 8.3C11.4 8.3 12.6 7.9 13.7 7L18 3.1V11C18 11.6 17.6 12 17 12Z"/>
  </symbol>
  <symbol viewBox="0 0 18 20" id="alert">
    <path d="M16 15V9C16 5.5 13.4 2.6 10 2.1V0H8V2.1C4.6 2.6 2 5.5 2 9V15H0V17H2H16H18V15H16ZM4 15V9C4 6.2 6.2 4 9 4C11.8 4 14 6.2 14 9V15H4Z"/>
    <path d="M11 18H7V20H11V18Z"/>
  </symbol>
  <symbol viewBox="0 0 2 12" id="tooltip">
    <path d="M2 12L2 4L0 4L0 12L2 12Z" />
    <path d="M2 0H0V2H2V0Z" />
  </symbol>
  <symbol viewBox="0 0 15 9" id="filter-icon">
    <g>
      <path d="M2.04545 0H0V1.5H2.04545V0Z" />
      <path d="M4.77282 0H3.40918V1.5H4.77282V0Z" />
      <path d="M14.9999 0H6.13623V1.5H14.9999V0Z" />
      <path d="M2.04545 7.5H0V9H2.04545V7.5Z" />
      <path d="M4.77282 7.5H3.40918V9H4.77282V7.5Z" />
      <path d="M14.9999 7.5H6.13623V9H14.9999V7.5Z" />
      <path d="M15 3.75H12.9546V5.25H15V3.75Z" />
      <path d="M11.5907 3.75H10.2271V5.25H11.5907V3.75Z" />
      <path d="M8.86364 3.75H0V5.25H8.86364V3.75Z" />
    </g>
  </symbol>
  <symbol viewBox="0 0 17 17" id="close-modal">
    <path d="M17 1.6L15.4 0L8.5 6.9L1.6 0L0 1.6L6.9 8.5L0 15.4L1.6 17L8.5 10.1L15.4 17L17 15.4L10.1 8.5L17 1.6Z" />
  </symbol>
  <symbol viewBox="0 0 11 6" id="select-arrow">
    <path d="M6.1 5.79961L10.8 1.29961C11.1 0.999609 11.1 0.499609 10.8 0.199609C10.5 -0.100391 10 -0.100391 9.7 0.199609L5.5 4.19961L1.3 0.199609C1 -0.100391 0.5 -0.100391 0.2 0.199609C0.1 0.399609 0 0.599609 0 0.799609C0 0.999609 0.1 1.19961 0.2 1.29961L4.9 5.79961C5.3 6.09961 5.7 6.09961 6.1 5.79961Z" fill="black" fill-opacity="0.3" />
  </symbol>
  <symbol viewBox="0 0 13 13" id="clear-field">
    <path opacity="0.3" d="M13 1.22353L11.7765 0L6.5 5.27647L1.22353 0L0 1.22353L5.27647 6.5L0 11.7765L1.22353 13L6.5 7.72353L11.7765 13L13 11.7765L7.72353 6.5L13 1.22353Z" fill="black"/>
  </symbol>
  <symbol viewBox="0 0 18 18" id="field-search">
    <path d="M18 16.6L14.5 13.1C15.6 11.7 16.2 10 16.2 8.1C16.2 3.6 12.6 0 8.1 0C3.6 0 0 3.6 0 8.1C0 12.6 3.6 16.2 8.1 16.2C10 16.2 11.7 15.6 13.1 14.5L16.6 18L18 16.6ZM8.1 14.2C4.8 14.2 2 11.5 2 8.1C2 4.7 4.8 2 8.1 2C11.4 2 14.2 4.7 14.2 8.1C14.2 11.5 11.5 14.2 8.1 14.2Z" fill="black" fill-opacity="0.3" />
  </symbol>
  <symbol viewBox="0 0 16 16" id="date-ico">
    <path d="M14 0V3H10V0H6V3H2V0H0V16H16V0H14ZM14 14H2V5H14V14Z" fill="black" fill-opacity="0.3"/>
    <path d="M5 0H3V2H5V0Z" fill="black" fill-opacity="0.3"/>
    <path d="M13 0H11V2H13V0Z" fill="black" fill-opacity="0.3"/>
    <path d="M6 7H4V9H6V7Z" fill="black" fill-opacity="0.3"/>
    <path d="M6 10H4V12H6V10Z" fill="black" fill-opacity="0.3"/>
    <path d="M9 7H7V9H9V7Z" fill="black" fill-opacity="0.3"/>
    <path d="M9 10H7V12H9V10Z" fill="black" fill-opacity="0.3"/>
    <path d="M12 7H10V9H12V7Z" fill="black" fill-opacity="0.3"/>
    <path d="M12 10H10V12H12V10Z" fill="black" fill-opacity="0.3"/>
  </symbol>
  <symbol viewBox="0 0 14 14" id="exit">
    <path d="M12.9 6.70002C12.9 6.60002 12.8 6.50002 12.7 6.50002L10.3 4.00002C10 3.70002 9.5 3.70002 9.2 4.00002C8.9 4.30002 8.9 4.70002 9.2 5.00002L10.4 6.20002H4.7C4.3 6.30002 4 6.60002 4 7.00002C4 7.40002 4.3 7.80002 4.8 7.80002H10.5L9.2 9.00002C8.9 9.30002 8.9 9.80002 9.2 10.1C9.3 10.2 9.5 10.3 9.7 10.3C9.9 10.3 10.1 10.2 10.2 10.1L12.7 7.60002C12.8 7.50002 12.8 7.40002 12.9 7.40002C13 7.10002 13 6.90002 12.9 6.70002Z" fill="black" fill-opacity="0.3"/>
    <path d="M1.5 1.5H7V0H1C0.4 0 0 0.4 0 1V13C0 13.6 0.4 14 1 14H7V12.5H1.5V1.5Z" fill="black" fill-opacity="0.3"/>
  </symbol>
  <symbol viewBox="0 0 18 11" id="back">
    <path d="M15 1.4H7V0L0 2L6.9 4V2.8H14.9C15.2 2.8 16.6 2.8 16.6 4.2V8.4C16.6 8.7 16.5 9 16.3 9.2C15.9 9.6 15.2 9.7 14.9 9.7H2.8V11H15C15 11 15 11 15.1 11C15.4 11 16.6 10.9 17.3 10.2C17.7 9.7 18 9.1 18 8.3V4.2C18 2.8 16.2 1.4 15 1.4Z" fill="#010101" fill-opacity="0.3"/>
  </symbol>
  <symbol viewBox="0 0 7 7" id="tableArrowDown">
    <path d="M5.4 1L3.5 4.8L1.6 1L5.4 1ZM7 0L0 0L3.5 7L7 0Z" fill="black"/>
  </symbol>
  <symbol viewBox="0 0 7 7" id="tableArrowUp">
    <path d="M1.6 6L3.5 2.2L5.4 6L1.6 6ZM0 7L7 7L3.5 3.0598e-07L0 7Z" fill="black"/>
  </symbol>
  <symbol viewBox="0 0 13 9" id="sms">
    <path d="M11.5 0H1.5C0.7 0 0 0.7 0 1.5V7.5C0 8.3 0.7 9 1.5 9H11.5C12.3 9 13 8.3 13 7.5V1.5C13 0.7 12.3 0 11.5 0ZM11.9 1.2C11.9 1.1 11.9 1.2 11.9 1.2V1.2ZM10.7 1L8.7 2.8C7.5 3.9 5.5 3.9 4.2 2.8L2.3 1H10.7ZM1.2 1.1C1.1 1.2 1.1 1.1 1.2 1.1V1.1ZM12 7.5C12 7.8 11.8 8 11.5 8H1.5C1.2 8 1 7.8 1 7.5V1.5C1 1.4 1 1.3 1.1 1.3L3.6 3.6C4.4 4.3 5.4 4.7 6.5 4.7C7.6 4.7 8.6 4.3 9.4 3.6L11.9 1.3C12 1.3 12 1.4 12 1.5V7.5Z" />
  </symbol>
  <symbol viewBox="0 0 18 16" id="like">
    <path d="M4 15.8C4 16 3.9 16 3.8 16C2.6 16 1.4 16 0.2 16C0.1 16 0 16 0 15.8C0 12.6 0 9.4 0 6.2C0 6 0.1 6 0.2 6C1.4 6 2.6 6 3.8 6C4 6 4 6.1 4 6.2C4 7.8 4 14.2 4 15.8Z"/>
    <path d="M17.9 8.3C17.3 10.2 16.6 12.1 16 14C15.9 14.3 15.8 14.6 15.7 14.8C15.5 15.5 14.9 15.9 14.1 15.9C13.3 15.9 8.8 15.9 8.8 15.9C8.4 15.9 8 15.9 7.6 15.9C7.3 15.9 7.1 15.9 6.8 15.8C5.8 15.5 5 14.6 5 13.5C5 12 5 10.5 5 9C5 8.1 5 7.2 5 6.3C5 6.1 5 6 5.2 5.9C6.8 4 8.3 2.1 9.9 0.1C10 0 10.1 0 10.2 0C11.4 0.6 11.9 2 11.3 3.2C10.9 4.1 10.4 5 9.9 5.8C9.9 5.8 9.8 5.9 9.8 6H16.5C17.1 6.1 17.5 6.5 17.8 7.1C18.1 7.5 18 7.9 17.9 8.3Z"/>
  </symbol>
  <symbol viewBox="0 0 18 16" id="dislike">
    <path d="M17.9 7.7C17.3 5.8 16.6 3.9 16 2C15.9 1.7 15.8 1.4 15.7 1.2C15.4 0.4 14.9 0 14.1 0C13.3 0 8.8 0 8.8 0C8.4 0 8 0 7.6 0C7.4 0 7.1 0 6.8 0.1C5.8 0.4 5 1.3 5 2.3C5 3.8 5 5.3 5 6.8C5 7.7 5 8.6 5 9.5C5 9.7 5 9.8 5.2 9.9C6.8 11.8 8.4 13.8 10 15.8C10 16 10.1 16 10.2 16C11.4 15.4 11.9 14 11.3 12.8C10.9 11.9 10.4 11.1 9.9 10.2C9.9 10.2 9.8 10.1 9.8 10H16.5C17.1 9.9 17.5 9.5 17.8 8.9C18.1 8.5 18 8.1 17.9 7.7Z"/>
    <path d="M4 5C4 3.4 4 1.8 4 0.2C4 0 3.9 0 3.8 0C2.6 0 1.4 0 0.2 0C0.1 0 0 0 0 0.2C0 3.4 0 6.6 0 9.8C0 10 0.1 10 0.2 10C1.4 10 2.6 10 3.8 10C4 10 4 9.9 4 9.8C4 8.2 4 6.6 4 5Z" />
  </symbol>
</svg>
