<svg fill="none" xmlns="http://www.w3.org/2000/svg">
  <symbol viewBox="0 0 12 12" id="essentialPlus">
    <path d="M12 5H7V0H5V5H0V7H5V12H7V7H12V5Z" fill="#dddddd"/>
  </symbol>
  <symbol viewBox="0 0 18 18" id="search">
    <path d="M18 16.6L14.5 13.1C15.6 11.7 16.2 10 16.2 8.1C16.2 3.6 12.6 0 8.1 0C3.6 0 0 3.6 0 8.1C0 12.6 3.6 16.2 8.1 16.2C10 16.2 11.7 15.6 13.1 14.5L16.6 18L18 16.6ZM8.1 14.2C4.8 14.2 2 11.5 2 8.1C2 4.7 4.8 2 8.1 2C11.4 2 14.2 4.7 14.2 8.1C14.2 11.5 11.5 14.2 8.1 14.2Z" />
  </symbol>
  <symbol viewBox="0 0 20 14" id="mail">
    <path d="M17 0H3C1.3 0 0 1.3 0 3V11C0 12.7 1.3 14 3 14H17C18.7 14 20 12.7 20 11V3C20 1.3 18.7 0 17 0ZM16.2 2L12.3 5.4C11 6.5 8.9 6.5 7.6 5.4L3.8 2H16.2ZM17 12H3C2.4 12 2 11.6 2 11V3.1L6.3 7C7.3 7.9 8.6 8.3 10 8.3C11.4 8.3 12.6 7.9 13.7 7L18 3.1V11C18 11.6 17.6 12 17 12Z"/>
  </symbol>
  <symbol viewBox="0 0 18 20" id="alert">
    <path d="M16 15V9C16 5.5 13.4 2.6 10 2.1V0H8V2.1C4.6 2.6 2 5.5 2 9V15H0V17H2H16H18V15H16ZM4 15V9C4 6.2 6.2 4 9 4C11.8 4 14 6.2 14 9V15H4Z"/>
    <path d="M11 18H7V20H11V18Z"/>
  </symbol>
</svg>
