<svg fill="none" xmlns="http://www.w3.org/2000/svg">
  <symbol viewBox="0 0 12 12" id="essentialPlus">
    <path d="M12 5H7V0H5V5H0V7H5V12H7V7H12V5Z" fill="#dddddd"/>
  </symbol>
  <symbol viewBox="0 0 18 18" id="search">
    <path d="M18 16.6L14.5 13.1C15.6 11.7 16.2 10 16.2 8.1C16.2 3.6 12.6 0 8.1 0C3.6 0 0 3.6 0 8.1C0 12.6 3.6 16.2 8.1 16.2C10 16.2 11.7 15.6 13.1 14.5L16.6 18L18 16.6ZM8.1 14.2C4.8 14.2 2 11.5 2 8.1C2 4.7 4.8 2 8.1 2C11.4 2 14.2 4.7 14.2 8.1C14.2 11.5 11.5 14.2 8.1 14.2Z" />
  </symbol>
  <symbol viewBox="0 0 20 14" id="mail">
    <path d="M17 0H3C1.3 0 0 1.3 0 3V11C0 12.7 1.3 14 3 14H17C18.7 14 20 12.7 20 11V3C20 1.3 18.7 0 17 0ZM16.2 2L12.3 5.4C11 6.5 8.9 6.5 7.6 5.4L3.8 2H16.2ZM17 12H3C2.4 12 2 11.6 2 11V3.1L6.3 7C7.3 7.9 8.6 8.3 10 8.3C11.4 8.3 12.6 7.9 13.7 7L18 3.1V11C18 11.6 17.6 12 17 12Z"/>
  </symbol>
  <symbol viewBox="0 0 18 20" id="alert">
    <path d="M16 15V9C16 5.5 13.4 2.6 10 2.1V0H8V2.1C4.6 2.6 2 5.5 2 9V15H0V17H2H16H18V15H16ZM4 15V9C4 6.2 6.2 4 9 4C11.8 4 14 6.2 14 9V15H4Z"/>
    <path d="M11 18H7V20H11V18Z"/>
  </symbol>
  <symbol viewBox="0 0 2 12" id="tooltip">
    <path d="M2 12L2 4L0 4L0 12L2 12Z" />
    <path d="M2 0H0V2H2V0Z" />
  </symbol>
  <symbol viewBox="0 0 15 9" id="filter-icon">
    <g>
      <path d="M2.04545 0H0V1.5H2.04545V0Z" />
      <path d="M4.77282 0H3.40918V1.5H4.77282V0Z" />
      <path d="M14.9999 0H6.13623V1.5H14.9999V0Z" />
      <path d="M2.04545 7.5H0V9H2.04545V7.5Z" />
      <path d="M4.77282 7.5H3.40918V9H4.77282V7.5Z" />
      <path d="M14.9999 7.5H6.13623V9H14.9999V7.5Z" />
      <path d="M15 3.75H12.9546V5.25H15V3.75Z" />
      <path d="M11.5907 3.75H10.2271V5.25H11.5907V3.75Z" />
      <path d="M8.86364 3.75H0V5.25H8.86364V3.75Z" />
    </g>
  </symbol>
  <symbol viewBox="0 0 17 17" id="close-modal">
    <path d="M17 1.6L15.4 0L8.5 6.9L1.6 0L0 1.6L6.9 8.5L0 15.4L1.6 17L8.5 10.1L15.4 17L17 15.4L10.1 8.5L17 1.6Z" />
  </symbol>
  <symbol viewBox="0 0 11 6" id="select-arrow">
    <path d="M6.1 5.79961L10.8 1.29961C11.1 0.999609 11.1 0.499609 10.8 0.199609C10.5 -0.100391 10 -0.100391 9.7 0.199609L5.5 4.19961L1.3 0.199609C1 -0.100391 0.5 -0.100391 0.2 0.199609C0.1 0.399609 0 0.599609 0 0.799609C0 0.999609 0.1 1.19961 0.2 1.29961L4.9 5.79961C5.3 6.09961 5.7 6.09961 6.1 5.79961Z" fill="black" fill-opacity="0.3" />
  </symbol>
  <symbol viewBox="0 0 13 13" id="clear-field">
    <path opacity="0.3" d="M13 1.22353L11.7765 0L6.5 5.27647L1.22353 0L0 1.22353L5.27647 6.5L0 11.7765L1.22353 13L6.5 7.72353L11.7765 13L13 11.7765L7.72353 6.5L13 1.22353Z" fill="black"/>
  </symbol>
  <symbol viewBox="0 0 18 18" id="field-search">
    <path d="M18 16.6L14.5 13.1C15.6 11.7 16.2 10 16.2 8.1C16.2 3.6 12.6 0 8.1 0C3.6 0 0 3.6 0 8.1C0 12.6 3.6 16.2 8.1 16.2C10 16.2 11.7 15.6 13.1 14.5L16.6 18L18 16.6ZM8.1 14.2C4.8 14.2 2 11.5 2 8.1C2 4.7 4.8 2 8.1 2C11.4 2 14.2 4.7 14.2 8.1C14.2 11.5 11.5 14.2 8.1 14.2Z" fill="black" fill-opacity="0.3" />
  </symbol>
  <symbol viewBox="0 0 16 16" id="date-ico">
    <path d="M14 0V3H10V0H6V3H2V0H0V16H16V0H14ZM14 14H2V5H14V14Z" fill="black" fill-opacity="0.3"/>
    <path d="M5 0H3V2H5V0Z" fill="black" fill-opacity="0.3"/>
    <path d="M13 0H11V2H13V0Z" fill="black" fill-opacity="0.3"/>
    <path d="M6 7H4V9H6V7Z" fill="black" fill-opacity="0.3"/>
    <path d="M6 10H4V12H6V10Z" fill="black" fill-opacity="0.3"/>
    <path d="M9 7H7V9H9V7Z" fill="black" fill-opacity="0.3"/>
    <path d="M9 10H7V12H9V10Z" fill="black" fill-opacity="0.3"/>
    <path d="M12 7H10V9H12V7Z" fill="black" fill-opacity="0.3"/>
    <path d="M12 10H10V12H12V10Z" fill="black" fill-opacity="0.3"/>
  </symbol>
</svg>
