<svg fill="none" xmlns="http://www.w3.org/2000/svg">
  <symbol viewBox="0 0 14 16" id="user">
    <g opacity="0.3">
      <path d="M6.90002 1.5C8.30002 1.5 9.40002 2.6 9.40002 4C9.40002 5.4 8.30002 6.5 6.90002 6.5C5.50002 6.5 4.40002 5.4 4.40002 4C4.40002 2.6 5.50002 1.5 6.90002 1.5ZM6.90002 0C4.70002 0 2.90002 1.8 2.90002 4C2.90002 6.2 4.70002 8 6.90002 8C9.10002 8 10.9 6.2 10.9 4C10.9 1.8 9.10002 0 6.90002 0Z" fill="black"/>
      <path d="M1.5 16V13C1.5 11.6 2.6 10.5 4 10.5H10C11.4 10.5 12.5 11.6 12.5 13V16H14V13C14 10.8 12.2 9 10 9H4C1.8 9 0 10.8 0 13V16H1.5Z" fill="black"/>
    </g>
  </symbol>
  <symbol viewBox="0 0 18 9" id="link">
    <g opacity="0.3" clip-path="url(#clip0_879_884)">
    <path d="M6.70005 8.29995H4.50005C2.40005 8.29995 0.800049 6.59995 0.800049 4.49995C0.800049 2.39995 2.50005 0.699951 4.50005 0.699951H6.70005" stroke="#0F0F0F" stroke-width="1.5" stroke-linecap="round" stroke-linejoin="round"/>
    <path d="M11.3 0.800049H13.5C15.6 0.800049 17.2 2.50005 17.2 4.60005C17.2 6.70005 15.5 8.40005 13.5 8.40005H11.3" stroke="#0F0F0F" stroke-width="1.5" stroke-linecap="round" stroke-linejoin="round"/>
    <path d="M6 4.5H12" stroke="#0F0F0F" stroke-width="1.5" stroke-linecap="round" stroke-linejoin="round"/>
    </g>
    <defs>
    <clipPath id="clip0_879_884">
    <rect width="18" height="9" fill="white"/>
    </clipPath>
    </defs>
  </symbol>
  <symbol viewBox="0 0 17 17" id="edit">
    <path d="M16.4 2.7L14.3 0.6C13.5 -0.2 12.2 -0.2 11.5 0.6L0.7 11.4C0.6 11.5 0.6 11.6 0.5 11.7L0 16.4C0 16.4 0 16.4 0 16.5C0 16.7 0.3 17 0.6 17H0.7L5.3 16.5C5.4 16.5 5.5 16.4 5.6 16.3L16.4 5.5C17.2 4.7 17.2 3.4 16.4 2.7ZM4.9 15.4L1.2 15.8L1.6 12.1L10.3 3.4L13.6 6.7L4.9 15.4ZM15.6 4.7L14.5 5.8L11.2 2.5L12.3 1.4C12.6 1.1 13.2 1.1 13.6 1.4L15.7 3.5C15.9 3.8 15.9 4.4 15.6 4.7Z" fill="black" opacity="0.3"/>
    <path d="M9.90005 6.30005L4.80005 11.4L5.60005 12.2L10.7 7.10005L9.90005 6.30005Z" fill="black" opacity="0.3"/>
  </symbol>
  <symbol viewBox="0 0 16 16" id="delete">
    <path d="M15.3 2.30005H13.1H2.8H0.6C0.3 2.30005 0 2.50005 0 2.80005C0 3.10005 0.3 3.40005 0.6 3.40005H2.3V15.4C2.3 15.7 2.6 16 2.9 16H13.1C13.4 16 13.7 15.7 13.7 15.4V3.40005H15.4C15.7 3.40005 16 3.10005 16 2.80005C16 2.50005 15.6 2.30005 15.3 2.30005ZM12.5 14.8H3.4V3.40005H12.5V14.8Z" fill="black" opacity="0.3"/>
    <path d="M6.19995 1.2H9.59995C9.89995 1.2 10.2 0.9 10.2 0.6C10.2 0.3 9.99995 0 9.69995 0H6.19995C5.89995 0 5.69995 0.3 5.69995 0.6C5.69995 0.9 5.89995 1.2 6.19995 1.2Z" fill="black" opacity="0.3"/>
    <path d="M6.19998 12C6.49998 12 6.79998 11.7 6.79998 11.4V5.69998C6.79998 5.39998 6.49998 5.09998 6.19998 5.09998C5.89998 5.09998 5.59998 5.39998 5.59998 5.69998V11.4C5.69998 11.7 5.89998 12 6.19998 12Z" fill="black" opacity="0.3"/>
    <path d="M9.69998 12C9.99998 12 10.3 11.7 10.3 11.4V5.69998C10.3 5.39998 9.99998 5.09998 9.69998 5.09998C9.39998 5.09998 9.09998 5.49998 9.09998 5.69998V11.4C9.09998 11.7 9.29998 12 9.69998 12Z" fill="black" opacity="0.3"/>
  </symbol>
</svg>
