<svg fill="none" xmlns="http://www.w3.org/2000/svg">
  <symbol viewBox="0 0 16 18" id="status1">
    <path d="M16 16H0V18H16V16Z" fill="#73C949"/>
    <path d="M16 6.5L14.6 5.1L9 10.7V0H7V10.7L1.4 5.1L0 6.5L8 14.5L16 6.5Z" fill="#73C949"/>
  </symbol>
  <symbol viewBox="0 0 16 18" id="status2">
    <path d="M16 16H0V18H16V16Z" fill="#FF744C"/>
    <path d="M0 8L1.4 9.4L7 3.8V14.5H9V3.8L14.6 9.4L16 8L8 0L0 8Z" fill="#FF744C"/>
  </symbol>
  <symbol viewBox="0 0 26 16" id="status3">
    <path d="M18 0L16.6 1.4L22.2 7H3.8L9.4 1.4L8 0L0 8L8 16L9.4 14.6L3.8 9H22.2L16.6 14.6L18 16L26 8L18 0Z" fill="rgba(0,0,0,0.3)"/>
  </symbol>
  <symbol viewBox="0 0 7 7" id="tableArrrow">
    <path d="M5.4 1L3.5 4.8L1.6 1H5.4ZM7 0H0L3.5 7L7 0Z"/>
  </symbol>
  <symbol viewBox="0 0 16 16" id="smaile">
    <path d="M7.99993 16.0001C3.79993 16.1001 -0.100071 12.3001 -7.08351e-05 7.90005C0.0999292 3.70005 3.69993 0.100051 7.89993 5.12352e-05C12.2999 -0.0999488 15.9999 3.80005 15.9999 8.00005C15.9999 12.3001 12.2999 16.1001 7.99993 16.0001ZM1.19993 8.00005C1.29993 11.9001 4.09993 14.8001 7.99993 14.8001C11.8999 14.8001 14.7999 11.9001 14.7999 8.00005C14.7999 4.10005 11.8999 1.20005 7.99993 1.20005C4.09993 1.20005 1.29993 4.10005 1.19993 8.00005Z" fill="#444444"/>
    <path d="M8.09978 12C6.49978 12 5.39978 11.2 4.59978 10C4.49978 9.8 4.59978 9.4 4.79978 9.2C5.09978 9 5.39978 9.1 5.59978 9.4C5.69978 9.5 5.79978 9.7 5.89978 9.8C6.99978 11.2 8.99978 11.2 9.99978 9.8C10.0998 9.7 10.1998 9.5 10.2998 9.4C10.4998 9.1 10.8998 9.1 11.0998 9.3C11.3998 9.5 11.3998 9.8 11.1998 10.1C10.4998 11.3 9.49978 12 8.09978 12Z" fill="#444444"/>
    <path d="M5.49961 6.9001C4.89961 6.9001 4.59961 6.5001 4.59961 6.0001C4.59961 5.5001 4.89961 5.1001 5.49961 5.1001C5.99961 5.1001 6.39961 5.4001 6.39961 5.9001C6.29961 6.5001 5.99961 6.9001 5.49961 6.9001Z" fill="#444444"/>
    <path d="M9.7002 6.0001C9.7002 5.5001 10.1002 5.1001 10.6002 5.1001C11.1002 5.1001 11.5002 5.5001 11.5002 6.0001C11.5002 6.5001 11.1002 6.9001 10.6002 6.9001C10.0002 6.9001 9.7002 6.5001 9.7002 6.0001Z" fill="#444444"/>
  </symbol>
  <symbol viewBox="0 0 16 16" id="smaile-active">
    <path d="M7.99993 16.0001C3.79993 16.1001 -0.100071 12.3001 -7.08351e-05 7.90005C0.0999292 3.70005 3.69993 0.100051 7.89993 5.12352e-05C12.2999 -0.0999488 15.9999 3.80005 15.9999 8.00005C15.9999 12.3001 12.2999 16.1001 7.99993 16.0001ZM1.19993 8.00005C1.29993 11.9001 4.09993 14.8001 7.99993 14.8001C11.8999 14.8001 14.7999 11.9001 14.7999 8.00005C14.7999 4.10005 11.8999 1.20005 7.99993 1.20005C4.09993 1.20005 1.29993 4.10005 1.19993 8.00005Z" fill="#444444"/>
    <path d="M8.09978 9.09595C6.49978 9.09595 5.39978 9.89595 4.59978 11.0959C4.49978 11.2959 4.59978 11.6959 4.79978 11.8959C5.09978 12.0959 5.39978 11.9959 5.59978 11.6959C5.69978 11.5959 5.79978 11.3959 5.89978 11.2959C6.99978 9.89595 8.99978 9.89595 9.99978 11.2959C10.0998 11.3959 10.1998 11.5959 10.2998 11.6959C10.4998 11.9959 10.8998 11.9959 11.0998 11.7959C11.3998 11.5959 11.3998 11.2959 11.1998 10.9959C10.4998 9.79595 9.49978 9.09595 8.09978 9.09595Z" fill="#444444"/>
    <path d="M5.49961 6.9001C4.89961 6.9001 4.59961 6.5001 4.59961 6.0001C4.59961 5.5001 4.89961 5.1001 5.49961 5.1001C5.99961 5.1001 6.39961 5.4001 6.39961 5.9001C6.29961 6.5001 5.99961 6.9001 5.49961 6.9001Z" fill="#444444"/>
    <path d="M9.7002 6.0001C9.7002 5.5001 10.1002 5.1001 10.6002 5.1001C11.1002 5.1001 11.5002 5.5001 11.5002 6.0001C11.5002 6.5001 11.1002 6.9001 10.6002 6.9001C10.0002 6.9001 9.7002 6.5001 9.7002 6.0001Z" fill="#444444"/>
  </symbol>
  <symbol viewBox="0 0 26 4" id="action">
    <path d="M2 4C3.10457 4 4 3.10457 4 2C4 0.89543 3.10457 0 2 0C0.89543 0 0 0.89543 0 2C0 3.10457 0.89543 4 2 4Z" fill="black"/>
    <path d="M24 4C25.1046 4 26 3.10457 26 2C26 0.89543 25.1046 0 24 0C22.8954 0 22 0.89543 22 2C22 3.10457 22.8954 4 24 4Z" fill="black"/>
    <path d="M13 4C14.1046 4 15 3.10457 15 2C15 0.89543 14.1046 0 13 0C11.8954 0 11 0.89543 11 2C11 3.10457 11.8954 4 13 4Z" fill="black"/>
  </symbol>
</svg>
